<svg xmlns="http://www.w3.org/2000/svg" xmlns:xlink="http://www.w3.org/1999/xlink" version="1.1" x="0px" y="0px" viewBox="59 10.899 394.7 613.50125" style="enable-background:new 59 10.899 394.7 490.801;" xml:space="preserve"><g><path d="M136.9,234.4c9.649,0,17.5-7.851,17.5-17.5s-7.851-17.5-17.5-17.5s-17.5,7.851-17.5,17.5S127.25,234.4,136.9,234.4z    M136.9,211.4c3.033,0,5.5,2.467,5.5,5.5s-2.467,5.5-5.5,5.5s-5.5-2.467-5.5-5.5C131.4,213.918,133.918,211.4,136.9,211.4z"/><path d="M364.3,187.8c7.94,0,14.4-6.46,14.4-14.4c0-8.075-6.325-14.4-14.4-14.4c-7.939,0-14.399,6.46-14.399,14.4   S356.36,187.8,364.3,187.8z M364.3,171c1.391,0,2.4,1.009,2.4,2.4c0,1.346-1.055,2.4-2.4,2.4s-2.399-1.054-2.399-2.4   S362.954,171,364.3,171z"/><rect x="261.8" y="161.4" width="9" height="9.1"/><rect x="243.4" y="161.4" width="9" height="9.1"/><path d="M296.053,89.805l-75-20.1c-3.198-0.857-6.491,1.042-7.349,4.242c-0.858,3.201,1.042,6.491,4.242,7.349l75,20.1   c0.52,0.14,1.042,0.206,1.557,0.206c2.648,0,5.073-1.768,5.792-4.448C301.153,93.953,299.254,90.663,296.053,89.805z"/><path d="M296.061,69.506l-75-20.2c-3.2-0.86-6.492,1.034-7.354,4.233c-0.862,3.2,1.033,6.492,4.233,7.354l75,20.2   c0.522,0.141,1.048,0.208,1.564,0.208c2.646,0,5.068-1.764,5.79-4.441C301.155,73.661,299.26,70.368,296.061,69.506z"/><path d="M217.947,40.595l75,20.1c0.52,0.14,1.042,0.206,1.557,0.206c2.648,0,5.073-1.768,5.792-4.448   c0.857-3.201-1.042-6.491-4.243-7.349l-61.886-16.586L250.64,21.95c2.789-1.789,3.6-5.5,1.81-8.29c-1.789-2.79-5.5-3.6-8.29-1.81   l-27.9,17.9c-2,1.283-3.054,3.625-2.689,5.972C213.937,38.069,215.652,39.98,217.947,40.595z"/><path d="M453.7,462c0-0.579-0.087-1.138-0.24-1.668c0.025-0.844,0.04-1.688,0.04-2.533c0-47.476-38.624-86.1-86.1-86.1   c-21.633,0-42.627,8.27-58.503,22.872c-9.483-8.306-21.785-12.973-34.598-12.973c-3.847,0-7.629,0.416-11.3,1.209v-31.478   c12.33,2.322,23.957,3.49,34.797,3.49c29.116,0,52.593-8.326,68.955-24.688c22.764-22.868,29.933-59.386,20.732-105.605   c-0.474-2.379-2.334-4.239-4.713-4.713c-46.285-9.213-82.772-2.004-105.515,20.842c-5.747,5.747-10.502,12.362-14.257,19.778   v-40.408c18.894-2.941,33.4-19.321,33.4-39.027v-43c0-3.313-2.687-6-6-6h-7.5v-27c0-3.313-2.687-6-6-6s-6,2.687-6,6v25.4h-27.8V105   c0-3.313-2.687-6-6-6s-6,2.687-6,6v27h-7.6c-3.308,0-5.992,2.678-6,5.986L217.4,181c0,19.775,14.608,36.201,33.6,39.058V267v14.936   c-1.912-2.834-4.066-5.471-6.472-7.893c-16.094-15.988-41.684-21.045-73.997-14.628c-2.381,0.473-4.243,2.334-4.716,4.716   c-6.425,32.349-1.328,57.941,14.742,74.013c11.596,11.596,28.049,17.495,48.339,17.495c6.933,0,14.316-0.691,22.104-2.078v33.413   c-2.566,1.26-5.034,2.727-7.374,4.404C234.179,375.804,217.25,366.1,198.6,366.1c-22.127,0-41.466,13.573-49.179,33.751   C142.216,397.293,134.634,396,126.8,396c-28.66,0-53.613,17.79-63.428,43.765c-2.049,0.955-3.472,3.027-3.472,5.436   c0,1.139,0.323,2.199,0.874,3.106c-0.292,1.247-0.563,2.504-0.787,3.78C59.332,455.902,59,459.877,59,463.9   c0,12.333,3.34,24.399,9.66,34.895c1.085,1.803,3.036,2.905,5.14,2.905H438c2.22,0,4.258-1.226,5.299-3.187   c5.644-10.628,9.028-22.338,9.94-34.208C453.535,463.596,453.7,462.817,453.7,462z M285.752,249.133   c19.159-19.245,50.474-25.541,90.714-18.299c7.238,40.212,0.968,71.56-18.208,90.825c-18.064,18.062-46.954,24.687-83.959,19.397   l9.618-10.027l47.225-7.503c3.272-0.521,5.504-3.595,4.984-6.867c-0.521-3.273-3.604-5.504-6.867-4.984l-31.592,5.019l48.863-50.94   c2.294-2.392,2.215-6.189-0.177-8.483c-2.392-2.293-6.188-2.215-8.483,0.177l-21.268,22.172l-2.621-32.304   c-0.269-3.304-3.175-5.761-6.466-5.495c-3.303,0.268-5.763,3.163-5.495,6.466l3.482,42.906l-39.313,40.984   C261.078,295.682,267.757,267.128,285.752,249.133z M229.4,181.014L229.486,144H284.4v37c0,13.067-9.164,24.027-21.4,26.81v-2.71   v-8.4c0-3.313-2.687-6-6-6s-6,2.687-6,6v8.4v2.756C238.663,205.148,229.4,194.14,229.4,181.014z M189.042,329.658   c-15.464-15.465-15.447-39.994-12.191-59.207c19.203-3.254,43.724-3.288,59.191,12.077c13.472,13.561,15.202,33.923,13.276,51.64   l-7.965-8.312l1.834-27.964c0.217-3.307-2.288-6.163-5.595-6.38c-3.296-0.213-6.163,2.288-6.38,5.595l-1.115,17.003l-27.466-28.662   c-2.292-2.392-6.09-2.474-8.483-0.181c-2.393,2.293-2.474,6.091-0.181,8.483l9.197,9.598l-13.083,4.938   c-3.101,1.17-4.665,4.632-3.495,7.732c0.907,2.402,3.19,3.883,5.614,3.883c0.704,0,1.42-0.125,2.118-0.389l17.872-6.746   l28.873,30.131C223.281,344.95,202.715,343.33,189.042,329.658z M434.297,489.7H77.309C73.172,481.783,71,472.931,71,463.9   c0-3.346,0.274-6.638,0.809-9.762c0.174-0.991,0.382-1.968,0.606-2.938H337c3.313,0,6-2.687,6-6s-2.687-6-6-6H76.678   c9.174-18.722,28.346-31.2,50.122-31.2c8.379,0,16.396,1.79,23.826,5.32c1.636,0.776,3.533,0.773,5.165-0.008   c1.632-0.781,2.825-2.257,3.246-4.018c4.39-18.367,20.66-31.195,39.564-31.195c16.488,0,31.232,9.816,37.562,25.008   c0.765,1.836,2.39,3.174,4.339,3.571c1.949,0.396,3.967-0.196,5.391-1.586c7.592-7.411,17.681-11.493,28.408-11.493   c11.527,0,22.509,4.885,30.129,13.401c1.121,1.252,2.715,1.977,4.395,1.998C308.85,409,308.875,409,308.9,409   c1.652,0,3.233-0.682,4.367-1.886c14.016-14.88,33.746-23.414,54.133-23.414c40.255,0,73.092,32.272,74.054,72.3H176.6   c-3.313,0-6,2.687-6,6s2.687,6,6,6h264.184C439.736,475.473,437.547,482.812,434.297,489.7z"/></g></svg>